<?xml version="1.0" encoding="UTF-8"?>
<svg width="128" height="128" viewBox="0 0 128 128" xmlns="http://www.w3.org/2000/svg">
  <defs>
    <radialGradient id="g" cx="35%" cy="35%" r="60%">
      <stop offset="0%" stop-color="#ffffff" stop-opacity="0.6"/>
      <stop offset="60%" stop-color="#ffc0cb"/>
      <stop offset="100%" stop-color="#e86b91"/>
    </radialGradient>
  </defs>
  <rect width="128" height="128" rx="28" fill="#1a1031"/>
  <g transform="translate(16,10)">
    <path d="M48 86 C40 74, 22 66, 22 46 C22 33, 33 22, 46 22 C54 22, 60 26, 64 32 C68 26, 74 22, 82 22 C95 22, 106 33, 106 46 C106 66, 88 74, 80 86 C72 98, 60 104, 64 104 C60 104, 56 98, 48 86 Z" fill="url(#g)"/>
    <path d="M64 104 C60 116, 54 120, 50 122" stroke="#f5d27a" stroke-width="2" fill="none" stroke-linecap="round"/>
  </g>
</svg>